# xmcd CD database file generated by OrangeCD 5.2
#
# Track frame offsets:
#	150
#	32861
#	54907
#	83215
#	120158
#	154642
#
# Disc length: 2518 seconds
#
# Revision: 0
# Processed by: cddbd v1.5.1PL0 Copyright (c) Steve Scherf et al.
# Submitted via: OrangeCD 5.2
#
DISCID=3a09d406
DTITLE=Clapton, Eric - Pickin In The Garden NYC 6/30/2004
DYEAR=2004
DGENRE=
TTITLE0=Badge
TTITLE1=Wounderful Tonight
TTITLE2=Layla
TTITLE3=Cocaine
TTITLE4=Sunshine of you Love
TTITLE5=Got My Mojo Working
EXTD=
EXTT0=
EXTT1=
EXTT2=
EXTT3=
EXTT4=
EXTT5=
PLAYORDER=
